<svg viewBox="0 0 24 24" xmlns="http://www.w3.org/2000/svg" xmlns:xlink="http://www.w3.org/1999/xlink" width="24.000000" height="24.000000" fill="none">
	<rect id="heart" width="24.000000" height="24.000000" x="-0.000244" y="0.000000" fill="rgb(255,255,255)" fill-opacity="0" />
	<path id="Vector" d="M16.4998 4.5C18.7058 4.5 20.4998 6.294 20.4998 8.5C20.4998 13.169 14.9568 17.441 11.9998 19.523C9.04276 17.441 3.49976 13.169 3.49976 8.5C3.49976 6.294 5.29376 4.5 7.49976 4.5C8.14206 4.50145 8.77462 4.65716 9.3442 4.95405C9.91378 5.25093 10.4037 5.68029 10.7728 6.206L11.9998 7.953L13.2268 6.207C13.5957 5.68111 14.0856 5.25155 14.6552 4.95449C15.2247 4.65743 15.8574 4.50156 16.4998 4.5ZM16.4998 3C15.6164 2.99987 14.7461 3.21288 13.9627 3.62095C13.1793 4.02902 12.5059 4.6201 11.9998 5.344C11.4936 4.6201 10.8202 4.02902 10.0368 3.62095C9.25338 3.21288 8.38307 2.99987 7.49976 3C6.04107 3 4.64212 3.57946 3.61067 4.61091C2.57922 5.64236 1.99976 7.04131 1.99976 8.5C1.99976 14.219 8.49976 18.938 11.9998 21.35C15.4998 18.938 21.9998 14.219 21.9998 8.5C21.9998 7.77773 21.8575 7.06253 21.5811 6.39524C21.3047 5.72795 20.8996 5.12163 20.3888 4.61091C19.8781 4.10019 19.2718 3.69506 18.6045 3.41866C17.9372 3.14226 17.222 3 16.4998 3Z" fill="rgb(92,92,92)" fill-rule="nonzero" />
</svg>
